<?xml version="1.0" encoding="utf-8"?>
<!-- Generator: Adobe Illustrator 17.1.0, SVG Export Plug-In . SVG Version: 6.00 Build 0)  -->
<svg version="1.2" baseProfile="tiny" id="Layer_1" xmlns="http://www.w3.org/2000/svg" xmlns:xlink="http://www.w3.org/1999/xlink"
	 x="0px" y="0px" viewBox="0 0 90 90" xml:space="preserve">
<g>
	<g>
		<g>
			<path fill="#6BC1E6" d="M45,85.548C22.642,85.548,4.452,67.358,4.452,45S22.642,4.452,45,4.452S85.548,22.642,85.548,45
				S67.358,85.548,45,85.548z"/>
			<path fill="#FBC93B" d="M45,7.657c20.624,0,37.343,16.719,37.343,37.343c0,20.624-16.719,37.343-37.343,37.343
				C24.376,82.343,7.657,65.624,7.657,45C7.657,24.376,24.376,7.657,45,7.657 M45,1.246C20.874,1.246,1.246,20.874,1.246,45
				S20.874,88.754,45,88.754S88.754,69.126,88.754,45S69.126,1.246,45,1.246L45,1.246z"/>
		</g>
		<g>
			<path fill="#EF5151" d="M34.681,40.568v-0.164l-1.885-2.05c-3.197-3.361-5.738-6.968-5.656-11.887
				c0-6.23,4.918-13.28,15.002-13.28c9.018,0,14.674,5.903,14.674,13.035c0,7.87-7.87,13.116-11.067,15.33l11.477,11.477
				c1.803-3.443,2.869-7.624,3.115-11.805c0.082-1.803,0.738-2.295,2.295-1.968l3.361,0.656c1.885,0.328,1.476,1.803,1.394,2.541
				c-0.656,6.148-2.951,12.05-5,15.74l7.624,7.378c0.984,0.984,1.721,1.885-0.164,3.771l-2.131,2.132
				c-0.984,0.902-2.296,1.066-3.525-0.246l-6.477-6.558c-2.951,3.361-8.853,7.542-17.871,7.542c-10.329,0-16.559-7.05-16.559-15.248
				C23.286,47.126,31.73,42.289,34.681,40.568z M40.502,65.325c5.902,0,9.919-3.115,12.297-5.903L39.108,44.994
				c-2.541,1.558-8.034,5.001-8.034,11.477C31.074,61.636,35.255,65.325,40.502,65.325z M49.519,26.55
				c0-3.525-2.869-7.05-7.788-7.05c-4.591,0-7.296,3.197-7.296,7.05c-0.082,3.197,1.968,5.574,4.755,8.362l1.804,1.804
				C43.453,35.239,49.519,32.042,49.519,26.55z"/>
		</g>
	</g>
	<path fill="#BB3E3F" d="M62.39,58.193c0,0-3.38,5.143-4.673,6.476c0.53,0.536,0.659,0.211,1.052,0.047
		c2.03-0.845,6.11-4.114,5.62-4.589C63.716,59.477,62.39,58.193,62.39,58.193z"/>
	<path fill="#BB3E3F" d="M39.108,44.994c0,0,0.11,0.147,0.193,0.203c0.325-0.069,1.209,1.919,1.933,1.729
		c2.182-0.572,5.638-3.268,6.079-3.812c-0.924-0.924-1.564-1.564-1.564-1.564"/>
	<path fill="#BB3E3F" d="M57.225,53.028c0,0-3.614,6.288-4.427,6.394C51.985,59.529,56.313,53.057,57.225,53.028z"/>
	<path fill="#BB3E3F" d="M40.994,36.715l-6.312,3.853C34.681,40.568,38.214,37.308,40.994,36.715z"/>
</g>
<g>
</g>
<g>
</g>
<g>
</g>
<g>
</g>
<g>
</g>
<g>
</g>
<g>
</g>
<g>
</g>
<g>
</g>
<g>
</g>
<g>
</g>
<g>
</g>
<g>
</g>
<g>
</g>
<g>
</g>
</svg>
