<?xml version="1.0" encoding="utf-8"?>
<!-- Generator: Adobe Illustrator 17.1.0, SVG Export Plug-In . SVG Version: 6.00 Build 0)  -->
<!DOCTYPE svg PUBLIC "-//W3C//DTD SVG 1.1//EN" "http://www.w3.org/Graphics/SVG/1.1/DTD/svg11.dtd">
<svg version="1.1" id="designNerd" xmlns="http://www.w3.org/2000/svg" xmlns:xlink="http://www.w3.org/1999/xlink" x="0px" y="0px"
	 viewBox="0 0 250 142.258" enable-background="new 0 0 250 142.258" xml:space="preserve">
<g class="leftCodeEye">
	<path fill="#1B1B1C" d="M42.848,70.166l-0.003-0.217c-0.003-0.261,0.21-0.611,0.426-0.743l14.657-9.362
		c0.56-0.354,1.215-0.013,1.222,0.681c0.008,0.782-0.007-0.608,0.017,1.562c0.003,0.26-0.124,0.609-0.468,0.83l-11.253,7.067
		l11.401,6.562c0.437,0.255,0.484,0.557,0.487,0.818c0.023,2.128,0.008,0.782,0.017,1.563c0.008,0.693-0.639,1.048-1.207,0.707
		L43.289,70.9C43.071,70.772,42.851,70.426,42.848,70.166z"/>
	<path fill="#1B1B1C" d="M70.296,55.326c0.083-0.304,0.427-0.569,0.775-0.573l0.955-0.01c0.607-0.006,0.96,0.467,0.793,1.076
		l-8.151,28.824c-0.083,0.306-0.471,0.57-0.774,0.573l-0.999,0.011c-0.564,0.007-0.959-0.467-0.792-1.076L70.296,55.326z"/>
	<path fill="#1B1B1C" d="M76.343,77.181c-0.002-0.26,0.124-0.652,0.469-0.829l11.255-6.807l-11.403-6.822
		c-0.393-0.257-0.483-0.559-0.486-0.819c-0.024-2.17-0.009-0.781-0.017-1.562c-0.008-0.694,0.64-1.049,1.208-0.708l14.857,9.041
		c0.218,0.128,0.439,0.472,0.442,0.734l0.002,0.216c0.003,0.26-0.21,0.61-0.426,0.743l-14.66,9.057
		c-0.56,0.354-1.215,0.013-1.223-0.681C76.352,77.962,76.367,79.308,76.343,77.181z"/>
</g>
<g>
	<path fill="#1B1B1C" d="M162.811,68.863l-0.003-0.217c-0.003-0.262,0.211-0.61,0.426-0.743l14.657-9.362
		c0.56-0.353,1.215-0.013,1.223,0.681c0.009,0.782-0.007-0.607,0.018,1.563c0.002,0.26-0.125,0.609-0.469,0.829l-11.253,7.068
		l11.4,6.562c0.437,0.255,0.484,0.558,0.487,0.817c0.021,2.128,0.009,0.782,0.018,1.565c0.006,0.693-0.642,1.048-1.209,0.705
		l-14.854-8.735C163.034,69.468,162.813,69.123,162.811,68.863z"/>
	<path fill="#1B1B1C" d="M190.26,54.023c0.083-0.304,0.428-0.569,0.774-0.572l0.956-0.011c0.607-0.007,0.96,0.467,0.792,1.077
		l-8.151,28.823c-0.084,0.307-0.47,0.571-0.774,0.574l-0.998,0.011c-0.564,0.006-0.96-0.468-0.793-1.077L190.26,54.023z"/>
	<path fill="#1B1B1C" d="M196.308,75.877c-0.002-0.259,0.124-0.652,0.468-0.829l11.256-6.808l-11.403-6.821
		c-0.393-0.256-0.483-0.559-0.486-0.819c-0.023-2.17-0.009-0.781-0.017-1.562c-0.008-0.694,0.639-1.048,1.208-0.707l14.855,9.041
		c0.22,0.128,0.44,0.472,0.442,0.733l0.003,0.217c0.001,0.26-0.21,0.61-0.427,0.743l-14.66,9.056
		c-0.561,0.354-1.215,0.014-1.223-0.679C196.316,76.66,196.33,78.005,196.308,75.877z"/>
</g>
<g class="designNerd">
	<path fill="#FBC93A" d="M23.664,115.068c0-0.332,0.266-0.631,0.598-0.631h7.865c6.405,0,11.649,5.21,11.649,11.582
		c0,6.438-5.244,11.649-11.649,11.649h-7.865c-0.332,0-0.598-0.299-0.598-0.631V115.068z M31.729,133.62
		c4.314,0,7.467-3.253,7.467-7.601c0-4.313-3.153-7.566-7.467-7.566h-3.784v15.167H31.729z"/>
	<path fill="#FBC93A" d="M48.158,115.068c0-0.332,0.266-0.631,0.631-0.631h13.507c0.365,0,0.63,0.299,0.63,0.631v2.721
		c0,0.332-0.266,0.631-0.63,0.631h-9.824v5.442h8.197c0.332,0,0.631,0.299,0.631,0.631v2.755c0,0.365-0.299,0.631-0.631,0.631
		h-8.197v5.808h9.824c0.365,0,0.63,0.299,0.63,0.631v2.721c0,0.332-0.266,0.631-0.63,0.631H48.789c-0.365,0-0.631-0.299-0.631-0.631
		V115.068z"/>
	<path fill="#FBC93A" d="M66.313,134.416l1.195-2.059c0.266-0.464,0.83-0.464,1.128-0.231c0.166,0.1,2.854,2.058,5.012,2.058
		c1.726,0,3.02-1.129,3.02-2.556c0-1.692-1.427-2.854-4.215-3.982c-3.12-1.262-6.239-3.253-6.239-7.169
		c0-2.954,2.19-6.372,7.467-6.372c3.385,0,5.974,1.726,6.637,2.224c0.332,0.199,0.432,0.764,0.199,1.096l-1.261,1.892
		c-0.266,0.397-0.763,0.663-1.162,0.397c-0.265-0.165-2.788-1.825-4.613-1.825c-1.892,0-2.921,1.262-2.921,2.323
		c0,1.56,1.228,2.622,3.917,3.717c3.219,1.295,6.936,3.22,6.936,7.501c0,3.418-2.954,6.571-7.633,6.571
		c-4.182,0-6.637-1.958-7.301-2.589C66.181,135.113,66.015,134.947,66.313,134.416z"/>
	<path fill="#FBC93A" d="M85.664,115.068c0-0.332,0.299-0.631,0.631-0.631h3.086c0.332,0,0.63,0.299,0.63,0.631v21.97
		c0,0.332-0.299,0.631-0.63,0.631h-3.086c-0.332,0-0.631-0.299-0.631-0.631V115.068z"/>
	<path fill="#FBC93A" d="M106.307,114.105c2.987,0,5.841,1.162,8.098,3.087c0.266,0.266,0.299,0.663,0.033,0.929l-2.058,2.157
		c-0.266,0.266-0.564,0.266-0.863,0c-1.427-1.261-3.186-1.925-5.012-1.925c-4.148,0-7.434,3.551-7.434,7.699
		c0,4.116,3.286,7.601,7.467,7.601c1.859,0,3.286-0.564,3.95-0.83v-2.82h-2.655c-0.365,0-0.63-0.266-0.63-0.598v-2.622
		c0-0.365,0.265-0.631,0.63-0.631h6.372c0.332,0,0.597,0.299,0.597,0.631v8.496c0,0.266-0.132,0.432-0.265,0.531
		c0,0-3.418,2.157-8.231,2.157c-6.604,0-11.914-5.244-11.914-11.882C94.393,119.449,99.703,114.105,106.307,114.105z"/>
	<path fill="#FBC93A" d="M119.684,114.703c0-0.332,0.299-0.598,0.631-0.598h0.83l13.806,14.669h0.033v-13.706
		c0-0.332,0.266-0.631,0.631-0.631h3.053c0.332,0,0.631,0.299,0.631,0.631v22.335c0,0.332-0.299,0.598-0.631,0.598h-0.796
		l-13.873-15.233h-0.033v14.271c0,0.332-0.266,0.631-0.63,0.631h-3.02c-0.332,0-0.631-0.299-0.631-0.631V114.703z"/>
	<path fill="#6CC1E8" d="M145.341,114.703c0-0.332,0.298-0.598,0.63-0.598h0.83l13.806,14.669h0.033v-13.706
		c0-0.332,0.266-0.631,0.631-0.631h3.054c0.331,0,0.63,0.299,0.63,0.631v22.335c0,0.332-0.299,0.598-0.63,0.598h-0.797
		l-13.872-15.233h-0.033v14.271c0,0.332-0.266,0.631-0.631,0.631h-3.021c-0.332,0-0.63-0.299-0.63-0.631V114.703z"/>
	<path fill="#6CC1E8" d="M170.997,115.068c0-0.332,0.265-0.631,0.63-0.631h13.508c0.365,0,0.631,0.299,0.631,0.631v2.721
		c0,0.332-0.266,0.631-0.631,0.631h-9.823v5.442h8.197c0.332,0,0.63,0.299,0.63,0.631v2.755c0,0.365-0.298,0.631-0.63,0.631h-8.197
		v5.808h9.823c0.365,0,0.631,0.299,0.631,0.631v2.721c0,0.332-0.266,0.631-0.631,0.631h-13.508c-0.365,0-0.63-0.299-0.63-0.631
		V115.068z"/>
	<path fill="#6CC1E8" d="M190.514,115.068c0-0.332,0.265-0.631,0.63-0.631h9.492c3.982,0,7.234,3.186,7.234,7.136
		c0,3.053-2.024,5.542-4.911,6.703l4.547,8.43c0.231,0.432,0,0.963-0.564,0.963h-3.485c-0.298,0-0.464-0.166-0.53-0.299
		l-4.414-8.795h-3.684v8.463c0,0.332-0.299,0.631-0.631,0.631h-3.054c-0.365,0-0.63-0.299-0.63-0.631V115.068z M200.271,125.024
		c1.759,0,3.285-1.526,3.285-3.385c0-1.76-1.526-3.22-3.285-3.22h-5.409v6.604H200.271z"/>
	<path fill="#6CC1E8" d="M212.618,115.068c0-0.332,0.265-0.631,0.597-0.631h7.866c6.405,0,11.648,5.21,11.648,11.582
		c0,6.438-5.243,11.649-11.648,11.649h-7.866c-0.332,0-0.597-0.299-0.597-0.631V115.068z M220.683,133.62
		c4.314,0,7.467-3.253,7.467-7.601c0-4.313-3.152-7.566-7.467-7.566h-3.783v15.167H220.683z"/>
</g>
<path class="leftEye" fill="#1B1B1C" d="M125.598,41.73c-4.58,0.117-9.213,0.193-10.517,0c-2.709-0.403-25.145-5.942-34.658-6.603
	c-8.041-0.558-18.364-0.227-26.04,0.71c-7.676,0.937-18.054,1.903-20.473,2.073c-2.419,0.169-11.383,0.409-11.93,2.406
	c-0.548,1.999-1.286,12.682-0.568,13.243c0.718,0.561,5.283,1.508,5.875,3.637c0.023,0.083,0.04,0.168,0.06,0.251
	c0.374,1.604,0.644,3.23,0.964,4.846c0.581,2.936,1.207,5.865,1.809,8.796c0.696,3.395,1.636,6.736,2.413,10.115
	c1.43,6.211,3.67,12.59,8.004,17.143c1.696,1.783,3.712,3.284,6.125,4.389c4.251,1.944,8.815,2.273,13.395,2.654
	c4.954,0.411,9.692,0.541,14.659,0.061c5.173-0.501,10.984-0.968,15.687-3.386c6.511-3.351,14.676-11.695,17.895-16.712
	c3.219-5.016,9.009-22.302,10.128-24.165c1.118-1.862,4.081-4.314,6.358-4.339 M124.782,56.85 M36.811,81.281
	c-0.51-2.403-0.949-4.819-1.39-7.234c-0.908-4.972-1.861-14.07-0.775-18.922c1.086-4.852,4.026-9.295,4.026-9.295
	c27.015-15.665,62.317-2.243,68.771,2.242c6.454,4.485,3.22,15.66,1.235,21.906c-0.635,1.997-1.435,3.938-2.277,5.855
	c-3.056,6.948-6.271,13.667-12.52,18.254c-1.703,1.25-3.356,2.564-5.116,3.734c-6.342,4.218-13.528,4.131-20.87,4.482
	c-4.843,0.231-10.374-0.032-15.059-1.316c-0.321-0.088-0.636-0.183-0.947-0.283C43.171,97.859,38.631,89.848,36.811,81.281z"/>
<path class="rightEye" fill="#1B1B1C" d="M127.858,56.816c2.278-0.025,5.293,2.361,6.453,4.2c1.157,1.838,7.32,18.992,10.649,23.937
	c3.327,4.946,11.671,13.111,18.254,16.319c4.753,2.316,10.573,2.655,15.755,3.045c4.976,0.374,9.711,0.141,14.653-0.379
	c4.572-0.48,9.128-0.908,13.336-2.944c2.389-1.157,4.371-2.701,6.028-4.519c4.233-4.648,6.334-11.074,7.63-17.316
	c0.703-3.393,1.57-6.753,2.191-10.162c0.537-2.944,1.1-5.887,1.617-8.834c0.285-1.621,0.52-3.253,0.858-4.866
	c0.018-0.082,0.032-0.168,0.053-0.251c0.547-2.142,5.091-3.188,5.798-3.764c0.703-0.577-0.267-11.241-0.857-13.228
	c-0.592-1.986-9.561-2.031-11.98-2.147c-2.423-0.117-12.819-0.858-20.513-1.627c-7.693-0.77-18.022-0.877-26.05-0.144
	c-9.497,0.866-31.807,6.893-34.506,7.353c-1.3,0.222-5.932,0.246-10.515,0.229L127.858,56.816z M127.858,56.816 M201.686,99.077
	c-0.308,0.107-0.622,0.209-0.941,0.304c-4.654,1.385-10.179,1.77-15.025,1.643c-7.348-0.192-14.531,0.051-20.961-4.028
	c-1.786-1.132-3.468-2.409-5.196-3.622c-6.348-4.448-9.709-11.099-12.915-17.979c-0.884-1.896-1.727-3.821-2.403-5.803
	c-2.12-6.202-5.597-17.304,0.758-21.928c6.354-4.623,41.356-18.81,68.706-3.735c0,0,3.036,4.379,4.229,9.206
	c1.191,4.827,0.435,13.943-0.365,18.934c-0.389,2.425-0.774,4.85-1.231,7.262C214.707,87.935,210.342,96.043,201.686,99.077z"/>
<g>
	<path fill="#EFEFEF" d="M125.784,55.182c0.008,0.767-0.612,1.401-1.379,1.41l-4.183,0.045c-0.767,0.008-1.401-0.612-1.41-1.379
		l-0.164-15.059c-0.008-0.767,0.612-1.401,1.379-1.41l4.183-0.046c0.767-0.008,1.401,0.612,1.41,1.379L125.784,55.182z"/>
	<path fill="none" stroke="#2B2B2B" stroke-width="1.255" stroke-miterlimit="10" d="M125.784,55.182
		c0.008,0.767-0.612,1.401-1.379,1.41l-4.183,0.045c-0.767,0.008-1.401-0.612-1.41-1.379l-0.164-15.059
		c-0.008-0.767,0.612-1.401,1.379-1.41l4.183-0.046c0.767-0.008,1.401,0.612,1.41,1.379L125.784,55.182z"/>
</g>
<g>
	<path fill="#EFEFEF" d="M133.312,55.1c0.008,0.767-0.613,1.401-1.38,1.41l-4.183,0.045c-0.767,0.008-1.401-0.612-1.409-1.379
		l-0.164-15.059c-0.008-0.767,0.613-1.401,1.38-1.41l4.184-0.045c0.767-0.008,1.401,0.612,1.409,1.379L133.312,55.1z"/>
	<path fill="none" stroke="#2B2B2B" stroke-width="1.255" stroke-miterlimit="10" d="M133.312,55.1
		c0.008,0.767-0.613,1.401-1.38,1.41l-4.183,0.045c-0.767,0.008-1.401-0.612-1.409-1.379l-0.164-15.059
		c-0.008-0.767,0.613-1.401,1.38-1.41l4.184-0.045c0.767-0.008,1.401,0.612,1.409,1.379L133.312,55.1z"/>
</g>
<g>
	<path fill="#EFEFEF" d="M130.724,56.846c0.064,0.966-0.674,1.809-1.641,1.873l-5.27,0.349c-0.966,0.065-1.809-0.674-1.873-1.64
		l-1.259-18.969c-0.065-0.966,0.674-1.809,1.64-1.873l5.269-0.35c0.967-0.064,1.81,0.674,1.873,1.64L130.724,56.846z"/>
	<path fill="none" stroke="#2B2B2B" stroke-width="1.5843" stroke-miterlimit="10" d="M130.724,56.846
		c0.064,0.966-0.674,1.809-1.641,1.873l-5.27,0.349c-0.966,0.065-1.809-0.674-1.873-1.64l-1.259-18.969
		c-0.065-0.966,0.674-1.809,1.64-1.873l5.269-0.35c0.967-0.064,1.81,0.674,1.873,1.64L130.724,56.846z"/>
</g>
<g>
	<path fill="#1B1B1C" d="M67.525,5.299c6.637,0,11.947,5.343,11.947,11.981s-5.31,11.915-11.947,11.915
		c-6.638,0-11.915-5.277-11.915-11.915S60.887,5.299,67.525,5.299z M67.525,24.88c4.182,0,7.633-3.418,7.633-7.6
		s-3.451-7.667-7.633-7.667c-4.182,0-7.6,3.485-7.6,7.667S63.343,24.88,67.525,24.88z"/>
	<path fill="#1B1B1C" d="M83.822,6.262c0-0.332,0.266-0.63,0.631-0.63H97.96c0.365,0,0.63,0.299,0.63,0.63v2.722
		c0,0.332-0.266,0.63-0.63,0.63h-9.824v6.239h8.197c0.332,0,0.631,0.299,0.631,0.631v2.721c0,0.332-0.299,0.631-0.631,0.631h-8.197
		v8.396c0,0.332-0.299,0.63-0.63,0.63h-3.053c-0.365,0-0.631-0.299-0.631-0.63V6.262z"/>
	<path fill="#1B1B1C" d="M102.542,6.262c0-0.332,0.266-0.63,0.631-0.63h13.507c0.365,0,0.63,0.299,0.63,0.63v2.722
		c0,0.332-0.266,0.63-0.63,0.63h-9.824v6.239h8.197c0.332,0,0.631,0.299,0.631,0.631v2.721c0,0.332-0.299,0.631-0.631,0.631h-8.197
		v8.396c0,0.332-0.299,0.63-0.63,0.63h-3.053c-0.365,0-0.631-0.299-0.631-0.63V6.262z"/>
	<path fill="#1B1B1C" d="M121.261,6.262c0-0.332,0.299-0.63,0.631-0.63h3.086c0.332,0,0.63,0.299,0.63,0.63v21.971
		c0,0.332-0.299,0.63-0.63,0.63h-3.086c-0.332,0-0.631-0.299-0.631-0.63V6.262z"/>
	<path fill="#1B1B1C" d="M141.938,5.299c3.352,0,5.775,1.062,8.031,3.086c0.299,0.266,0.299,0.664,0.033,0.929l-2.023,2.091
		c-0.232,0.266-0.564,0.266-0.83,0c-1.395-1.228-3.252-1.958-5.111-1.958c-4.248,0-7.4,3.551-7.4,7.733
		c0,4.148,3.186,7.667,7.434,7.667c1.991,0,3.684-0.763,5.078-1.892c0.266-0.232,0.631-0.199,0.83,0l2.057,2.124
		c0.266,0.232,0.199,0.664-0.033,0.896c-2.256,2.19-5.11,3.219-8.064,3.219c-6.637,0-11.98-5.277-11.98-11.915
		S135.301,5.299,141.938,5.299z"/>
	<path fill="#1B1B1C" d="M154.352,6.262c0-0.332,0.299-0.63,0.631-0.63h3.086c0.332,0,0.631,0.299,0.631,0.63v21.971
		c0,0.332-0.299,0.63-0.631,0.63h-3.086c-0.332,0-0.631-0.299-0.631-0.63V6.262z"/>
	<path fill="#1B1B1C" d="M161.72,28l10.321-22.335c0.1-0.199,0.266-0.365,0.564-0.365h0.332c0.332,0,0.465,0.166,0.564,0.365
		L183.723,28c0.199,0.431-0.066,0.863-0.563,0.863h-2.888c-0.498,0-0.73-0.199-0.963-0.664l-1.625-3.584h-9.924l-1.626,3.584
		c-0.133,0.332-0.432,0.664-0.962,0.664h-2.889C161.786,28.863,161.521,28.431,161.72,28z M176.057,20.931l-3.318-7.301h-0.1
		l-3.252,7.301H176.057z"/>
	<path fill="#1B1B1C" d="M186.745,6.262c0-0.332,0.266-0.63,0.631-0.63h3.054c0.331,0,0.63,0.299,0.63,0.63V24.88h8.463
		c0.365,0,0.631,0.298,0.631,0.63v2.722c0,0.332-0.266,0.63-0.631,0.63h-12.146c-0.365,0-0.631-0.299-0.631-0.63V6.262z"/>
</g>
<g>
</g>
<g>
</g>
<g>
</g>
<g>
</g>
<g>
</g>
<g>
</g>
</svg>
